# File created by Blade
# Date/Time:  Tue Jan 27 18:12:42 2015
# Frame Rate: 120.000 fps
#------------------------------------------------------
:FULLY-SPECIFIED
:DEGREES
3286
root -1.466401 31.859215 -6.735940 6.624712 4.125286 3.077721
Spine -5.845481 -19.794532 -1.705855
Head 10.615638 9.586015 11.040409
LeftShoulder -15.395399 18.049424 3.927074
LeftArm 27.866313 39.874330 -68.174669
LeftForeArm -1.524615 -0.000000 17.612316
LeftHand -11.589715 -0.000000 -2.738745
LeftHandThumb1 -26.253704 0.000000 33.147579
RightShoulder -17.858346 -3.893634 -18.551586
RightArm -22.740545 64.754936 49.615820
RightForeArm 36.686319 -0.000000 117.742481
RightHand -15.447703 -0.000000 -14.640595
RightHandThumb1 -24.326973 -0.000000 -32.862282
LeftUpLeg -2.263340 1.429357 -1.125426
LeftLeg 0.764648 -0.000000 -0.000000
LeftFoot -18.127783 17.104028 -24.935754
LeftToeBase 8.676257 -0.000000 -0.000000
RightUpLeg -0.594565 -1.751966 -3.740185
RightLeg -2.924347 -0.000000 0.000000
RightFoot -14.906181 -13.270638 9.706697
RightToeBase 5.164735 -0.000000 -0.000000
3287
root -1.464953 31.859675 -6.740232 6.627451 4.185048 3.084695
Spine -5.846214 -19.837500 -1.704200
Head 10.596735 9.606565 11.071749
LeftShoulder -15.378462 18.031733 3.950514
LeftArm 27.902400 39.882318 -68.133423
LeftForeArm -1.496141 0.000000 17.613326
LeftHand -11.561718 -0.000000 -2.640799
LeftHandThumb1 -26.253704 0.000000 33.147579
RightShoulder -17.895049 -3.948151 -18.541129
RightArm -22.701546 64.745207 49.656615
RightForeArm 36.647977 -0.000000 117.750001
RightHand -15.442843 -0.000000 -14.607800
RightHandThumb1 -24.326973 -0.000000 -32.862282
LeftUpLeg -2.271998 1.419049 -1.130455
LeftLeg 0.750006 -0.000000 -0.000000
LeftFoot -18.080123 17.072996 -24.900615
LeftToeBase 8.658184 -0.000000 -0.000000
RightUpLeg -0.592258 -1.756522 -3.745998
RightLeg -2.921187 -0.000000 0.000000
RightFoot -14.924832 -13.356506 9.756729
RightToeBase 5.196752 -0.000000 -0.000000
3288
root -1.464557 31.860255 -6.744582 6.632868 4.242611 3.084621
Spine -5.850314 -19.864752 -1.700093
Head 10.576974 9.607348 11.111661
LeftShoulder -15.371887 18.027989 3.963969
LeftArm 28.013353 39.967272 -68.001655
LeftForeArm -1.578489 0.000000 17.615423
LeftHand -11.574771 -0.000000 -2.483752
LeftHandThumb1 -26.253704 0.000000 33.147579
RightShoulder -17.923944 -3.993851 -18.528588
RightArm -22.760875 64.751721 49.613414
RightForeArm 36.646614 -0.000000 117.756041
RightHand -15.424556 -0.000000 -14.542050
RightHandThumb1 -24.326973 -0.000000 -32.862282
LeftUpLeg -2.289394 1.411907 -1.125060
LeftLeg 0.743831 -0.000000 -0.000000
LeftFoot -18.054328 17.026501 -24.921668
LeftToeBase 8.631814 -0.000000 -0.000000
RightUpLeg -0.598407 -1.777765 -3.742399
RightLeg -2.917403 -0.000000 0.000000
RightFoot -14.915206 -13.323087 9.730079
RightToeBase 5.068642 -0.000000 -0.000000
3289
root -1.463624 31.860484 -6.748800 6.638003 4.307801 3.088375
Spine -5.853425 -19.921050 -1.694871
Head 10.563459 9.635700 11.143433
LeftShoulder -15.367796 17.991755 3.988412
LeftArm 28.004236 39.963619 -68.001288
LeftForeArm -1.610072 -0.000000 17.630489
LeftHand -11.579412 0.000000 -2.521897
LeftHandThumb1 -26.253704 0.000000 33.147579
RightShoulder -17.935846 -4.040915 -18.515841
RightArm -22.800787 64.782318 49.597206
RightForeArm 36.656800 -0.000000 117.775746
RightHand -15.446560 -0.000000 -14.471732
RightHandThumb1 -24.326973 -0.000000 -32.862282
LeftUpLeg -2.299798 1.391074 -1.127875
LeftLeg 0.725964 -0.000000 -0.000000
LeftFoot -18.017201 16.997527 -24.883910
LeftToeBase 8.667487 -0.000000 -0.000000
RightUpLeg -0.599739 -1.791132 -3.742583
RightLeg -2.914587 -0.000000 0.000000
RightFoot -14.934566 -13.362338 9.760423
RightToeBase 5.086877 -0.000000 -0.000000
3290
root -1.461504 31.860574 -6.751272 6.638058 4.364941 3.098412
Spine -5.858390 -19.956200 -1.699442
Head 10.559584 9.660832 11.178692
LeftShoulder -15.365656 17.978876 3.998756
LeftArm 28.055754 40.005428 -67.930693
LeftForeArm -1.696372 -0.000000 17.638779
LeftHand -11.593348 0.000000 -2.521009
LeftHandThumb1 -26.253704 0.000000 33.147579
RightShoulder -17.958696 -4.100723 -18.509058
RightArm -22.772332 64.757399 49.642254
RightForeArm 36.548619 -0.000000 117.808461
RightHand -15.511430 0.000000 -14.711497
RightHandThumb1 -24.326973 -0.000000 -32.862282
LeftUpLeg -2.301327 1.377302 -1.137634
LeftLeg 0.707865 -0.000000 -0.000000
LeftFoot -17.974738 16.977971 -24.848811
LeftToeBase 8.654379 -0.000000 -0.000000
RightUpLeg -0.595417 -1.809991 -3.753032
RightLeg -2.908294 -0.000000 0.000000
RightFoot -14.948365 -13.427403 9.738149
RightToeBase 5.101638 -0.000000 -0.000000
3291
root -1.462221 31.861148 -6.754596 6.642212 4.426151 3.102370
Spine -5.863974 -19.988409 -1.706425
Head 10.560929 9.677489 11.226062
LeftShoulder -15.357666 17.971195 4.014911
LeftArm 28.088016 40.011109 -67.879786
LeftForeArm -1.722845 0.000000 17.660686
LeftHand -11.603477 0.000000 -2.441135
LeftHandThumb1 -26.253704 0.000000 33.147579
RightShoulder -17.991050 -4.116143 -18.483019
RightArm -22.912522 64.812054 49.529217
RightForeArm 36.706174 -0.000000 117.830127
RightHand -15.543481 -0.000000 -14.533474
RightHandThumb1 -24.326973 -0.000000 -32.862282
LeftUpLeg -2.314866 1.360922 -1.135323
LeftLeg 0.702269 -0.000000 -0.000000
LeftFoot -17.939693 16.952222 -24.847787
LeftToeBase 8.615868 -0.000000 -0.000000
RightUpLeg -0.594510 -1.817133 -3.750975
RightLeg -2.909434 -0.000000 0.000000
RightFoot -14.962147 -13.432383 9.802698
RightToeBase 5.246016 -0.000000 -0.000000
3292
root -1.462119 31.861218 -6.757188 6.649779 4.478847 3.107283
Spine -5.878471 -20.011418 -1.709751
Head 10.561586 9.687715 11.270889
LeftShoulder -15.349260 17.951134 4.028880
LeftArm 28.096338 40.010801 -67.847362
LeftForeArm -1.721018 -0.000000 17.678727
LeftHand -11.587268 -0.000000 -2.587874
LeftHandThumb1 -26.253704 0.000000 33.147579
RightShoulder -18.019556 -4.161002 -18.467581
RightArm -22.985542 64.821688 49.490324
RightForeArm 36.744725 -0.000000 117.866643
RightHand -15.555422 -0.000000 -14.625217
RightHandThumb1 -24.326973 -0.000000 -32.862282
LeftUpLeg -2.321489 1.343048 -1.138978
LeftLeg 0.680285 -0.000000 -0.000000
LeftFoot -17.909234 16.957776 -24.798202
LeftToeBase 8.634928 -0.000000 -0.000000
RightUpLeg -0.595139 -1.827531 -3.753270
RightLeg -2.914117 -0.000000 0.000000
RightFoot -14.940262 -13.445763 9.879293
RightToeBase 4.948592 -0.000000 -0.000000
3293
root -1.462752 31.861555 -6.759352 6.649859 4.526135 3.104514
Spine -5.888419 -20.029238 -1.709025
Head 10.579073 9.720233 11.310792
LeftShoulder -15.342212 17.936210 4.037223
LeftArm 28.105244 40.018465 -67.809527
LeftForeArm -1.745663 0.000000 17.697467
LeftHand -11.577796 -0.000000 -2.580098
LeftHandThumb1 -26.253704 0.000000 33.147579
RightShoulder -17.945921 -4.130554 -18.465647
RightArm -23.491968 64.866857 49.044697
RightForeArm 36.791265 -0.000000 117.915065
RightHand -15.535572 -0.000000 -14.762107
RightHandThumb1 -24.326973 -0.000000 -32.862282
LeftUpLeg -2.321189 1.337990 -1.130643
LeftLeg 0.656974 -0.000000 -0.000000
LeftFoot -17.869145 16.925773 -24.771163
LeftToeBase 8.634353 -0.000000 -0.000000
RightUpLeg -0.594413 -1.832364 -3.744727
RightLeg -2.902659 -0.000000 0.000000
RightFoot -14.973652 -13.509984 9.806714
RightToeBase 5.088780 -0.000000 -0.000000
3294
root -1.462252 31.861820 -6.761138 6.651501 4.571163 3.109784
Spine -5.899094 -20.032136 -1.714135
Head 10.586296 9.718882 11.337004
LeftShoulder -15.334697 17.926863 4.048497
LeftArm 28.132390 40.036744 -67.757776
LeftForeArm -1.785171 -0.000000 17.709096
LeftHand -11.549587 -0.000000 -2.569134
LeftHandThumb1 -26.253704 0.000000 33.147579
RightShoulder -17.957593 -3.979485 -18.535223
RightArm -24.027559 64.790748 48.623320
RightForeArm 36.709836 -0.000000 117.947493
RightHand -15.601140 -0.000000 -14.700518
RightHandThumb1 -24.326973 -0.000000 -32.862282
LeftUpLeg -2.316899 1.309918 -1.132477
LeftLeg 0.629858 -0.000000 -0.000000
LeftFoot -17.841979 16.912322 -24.799109
LeftToeBase 8.615131 -0.000000 -0.000000
RightUpLeg -0.589878 -1.849690 -3.747374
RightLeg -2.903178 -0.000000 0.000000
RightFoot -14.970641 -13.531961 9.783958
RightToeBase 5.077751 -0.000000 -0.000000
3295
root -1.463995 31.862154 -6.763829 6.658112 4.624975 3.104468
Spine -5.908565 -20.061811 -1.713255
Head 10.586680 9.747550 11.378811
LeftShoulder -15.359732 17.925159 4.050009
LeftArm 28.156364 40.009640 -67.731633
LeftForeArm -1.732412 -0.000000 17.706505
LeftHand -11.514975 -0.000000 -2.541523
LeftHandThumb1 -26.253704 0.000000 33.147579
RightShoulder -17.973154 -4.009079 -18.512517
RightArm -24.129647 64.806025 48.558155
RightForeArm 36.670969 -0.000000 117.968601
RightHand -15.561041 0.000000 -14.752979
RightHandThumb1 -24.326973 -0.000000 -32.862282
LeftUpLeg -2.328779 1.297238 -1.121686
LeftLeg 0.614833 -0.000000 -0.000000
LeftFoot -17.809914 16.898971 -24.747386
LeftToeBase 8.635685 -0.000000 -0.000000
RightUpLeg -0.588760 -1.842520 -3.735679
RightLeg -2.911450 -0.000000 0.000000
RightFoot -14.978839 -13.582143 9.835704
RightToeBase 5.104256 -0.000000 -0.000000
3296
root -1.464021 31.862339 -6.765253 6.658063 4.668273 3.102919
Spine -5.914134 -20.073295 -1.714428
Head 10.584787 9.764140 11.408279
LeftShoulder -15.370491 17.910840 4.054181
LeftArm 28.158252 40.007799 -67.711376
LeftForeArm -1.723951 -0.000000 17.709271
LeftHand -11.457168 -0.000000 -2.495998
LeftHandThumb1 -26.253704 0.000000 33.147579
RightShoulder -18.067329 -4.041671 -18.508452
RightArm -23.972780 64.762997 48.749187
RightForeArm 36.531685 0.000000 117.972144
RightHand -15.564079 -0.000000 -14.795972
RightHandThumb1 -24.326973 -0.000000 -32.862282
LeftUpLeg -2.330075 1.284384 -1.116511
LeftLeg 0.602277 -0.000000 -0.000000
LeftFoot -17.789359 16.871454 -24.766828
LeftToeBase 8.634173 -0.000000 -0.000000
RightUpLeg -0.583150 -1.853405 -3.730553
RightLeg -2.912660 -0.000000 0.000000
RightFoot -14.972678 -13.629748 9.799231
RightToeBase 5.120089 -0.000000 -0.000000
3297
root -1.464230 31.862517 -6.766965 6.656522 4.701506 3.103422
Spine -5.919767 -20.071047 -1.722224
Head 10.593833 9.775211 11.440277
LeftShoulder -15.380543 17.908075 4.054680
LeftArm 28.164287 39.981066 -67.693601
LeftForeArm -1.671794 -0.000000 17.724891
LeftHand -11.493848 -0.000000 -2.442198
LeftHandThumb1 -26.253704 0.000000 33.147579
RightShoulder -18.089409 -4.084089 -18.487500
RightArm -24.070157 64.752049 48.696380
RightForeArm 36.457771 0.000000 117.986688
RightHand -15.491791 -0.000000 -14.798913
RightHandThumb1 -24.326973 -0.000000 -32.862282
LeftUpLeg -2.329831 1.279241 -1.114339
LeftLeg 0.590849 -0.000000 -0.000000
LeftFoot -17.761742 16.863585 -24.727375
LeftToeBase 8.617919 -0.000000 -0.000000
RightUpLeg -0.582393 -1.861171 -3.729013
RightLeg -2.904632 -0.000000 0.000000
RightFoot -14.984896 -13.630911 9.836355
RightToeBase 5.126339 -0.000000 -0.000000
3298
root -1.464597 31.862670 -6.768334 6.655138 4.731279 3.103455
Spine -5.927104 -20.068186 -1.732564
Head 10.606283 9.785463 11.473539
LeftShoulder -15.389446 17.906421 4.058677
LeftArm 28.170747 39.957929 -67.680858
LeftForeArm -1.646991 -0.000000 17.718448
LeftHand -11.458312 -0.000000 -2.418008
LeftHandThumb1 -26.253704 0.000000 33.147579
RightShoulder -18.107096 -4.114653 -18.474559
RightArm -24.113656 64.814800 48.693918
RightForeArm 36.375805 -0.000000 117.976420
RightHand -15.488116 0.000000 -14.733101
RightHandThumb1 -24.326973 -0.000000 -32.862282
LeftUpLeg -2.330936 1.269554 -1.111680
LeftLeg 0.585088 -0.000000 -0.000000
LeftFoot -17.742351 16.867970 -24.695424
LeftToeBase 8.598853 -0.000000 -0.000000
RightUpLeg -0.580146 -1.880192 -3.726963
RightLeg -2.900199 -0.000000 0.000000
RightFoot -14.991924 -13.624771 9.846862
RightToeBase 5.074631 -0.000000 -0.000000
